<svg width="24" height="24" viewBox="0 0 24 24" fill="none" xmlns="http://www.w3.org/2000/svg">
<path d="M10.3333 5V6.78421L12 7.83421V6.57895H20.3333V18.4211H16.1667V20H22V5H10.3333ZM8.25 7.36842L2 11.3158V20H14.5V11.3158L8.25 7.36842ZM13.6667 8.15789V8.89211L15.0083 9.73684H15.3333V8.15789H13.6667ZM17 8.15789V9.73684H18.6667V8.15789H17ZM8.25 9.34211L12.8333 12.1053V18.4211H10.3333V13.6842H6.16667V18.4211H3.66667V12.1053L8.25 9.34211ZM17 11.3158V12.8947H18.6667V11.3158H17ZM17 14.4737V16.0526H18.6667V14.4737H17Z" fill="#fff"/>
</svg>
