<?xml version="1.0" encoding="utf-8"?>
<!-- Generator: Adobe Illustrator 27.5.0, SVG Export Plug-In . SVG Version: 6.00 Build 0)  -->
<svg version="1.1" id="Layer_1" xmlns="http://www.w3.org/2000/svg" xmlns:xlink="http://www.w3.org/1999/xlink" x="0px" y="0px"
	 viewBox="0 0 288 288" style="enable-background:new 0 0 288 288;" xml:space="preserve">
<g id="Film_01">
</g>
<g id="New_Symbol_8">
</g>
<g>
	<rect style="fill-rule:evenodd;clip-rule:evenodd;fill:#FAFAFA;" width="288" height="288"/>
	<rect y="144" style="fill-rule:evenodd;clip-rule:evenodd;fill:#181C21;" width="288" height="144"/>
	<rect style="fill-rule:evenodd;clip-rule:evenodd;fill:#FFFFFF;" width="288" height="144"/>
	<g>
		<g>
			<path style="fill:#181C21;" d="M184.601,109.665c0,0-1.244-0.423-3.397-1.214c-1.064-0.436-2.413-0.777-3.916-1.266
				c-1.492-0.51-3.239-0.916-5.119-1.413c-0.47-0.122-0.949-0.249-1.438-0.376c-0.496-0.101-1.002-0.203-1.516-0.307
				c-1.024-0.217-2.083-0.441-3.171-0.671c-1.091-0.216-2.227-0.36-3.377-0.55c-1.154-0.174-2.323-0.4-3.533-0.504
				c-1.203-0.137-2.426-0.277-3.664-0.419c-1.24-0.115-2.503-0.169-3.77-0.269c-0.634-0.043-1.27-0.088-1.908-0.133
				c-0.639-0.027-1.281-0.026-1.924-0.047c-1.285-0.029-2.576-0.06-3.867-0.09c-1.295,0.031-2.591,0.061-3.881,0.092
				c-0.649,0.02-1.305,0.021-1.945,0.049c-0.634,0.045-1.266,0.088-1.895,0.133c-1.26,0.1-2.51,0.154-3.747,0.268
				c-1.238,0.143-2.461,0.283-3.664,0.42c-1.21,0.103-2.379,0.33-3.532,0.504c-1.15,0.189-2.287,0.334-3.378,0.55
				c-1.088,0.229-2.146,0.454-3.171,0.671c-0.514,0.104-1.019,0.207-1.516,0.307c-0.489,0.128-0.969,0.253-1.438,0.375
				c-1.88,0.498-3.626,0.904-5.125,1.414c-1.507,0.49-2.858,0.834-3.915,1.265c-2.144,0.786-3.394,1.211-3.394,1.211
				s1.139-0.642,3.176-1.722c1.004-0.572,2.295-1.106,3.765-1.756c0.369-0.162,0.749-0.328,1.141-0.5
				c0.196-0.085,0.396-0.172,0.597-0.26c0.205-0.076,0.414-0.153,0.625-0.232c0.851-0.303,1.743-0.623,2.676-0.956
				c0.468-0.166,0.944-0.335,1.431-0.508c0.495-0.146,0.998-0.294,1.51-0.446c1.029-0.289,2.094-0.589,3.188-0.896
				c1.1-0.289,2.246-0.51,3.411-0.777c1.166-0.262,2.36-0.523,3.59-0.69c1.227-0.186,2.475-0.375,3.739-0.565
				c1.271-0.164,2.572-0.256,3.879-0.377c0.653-0.058,1.311-0.115,1.969-0.172c0.653-0.045,1.3-0.049,1.951-0.072
				c1.314-0.039,2.635-0.077,3.954-0.115c1.324,0.039,2.648,0.077,3.968,0.116c0.659,0.022,1.318,0.03,1.973,0.074
				c0.654,0.058,1.307,0.115,1.956,0.173c1.298,0.121,2.589,0.215,3.857,0.375c1.264,0.191,2.512,0.381,3.739,0.567
				c1.229,0.165,2.423,0.431,3.59,0.692c1.164,0.266,2.31,0.486,3.411,0.775c1.093,0.308,2.158,0.607,3.188,0.897
				c0.513,0.151,1.016,0.3,1.51,0.445c0.486,0.173,0.964,0.342,1.431,0.507c0.933,0.334,1.825,0.653,2.675,0.957
				c0.212,0.078,0.421,0.155,0.627,0.231c0.201,0.089,0.401,0.175,0.598,0.261c0.393,0.172,0.774,0.34,1.145,0.5
				c1.474,0.65,2.768,1.188,3.764,1.756C183.456,109.021,184.601,109.665,184.601,109.665z"/>
		</g>
		<g>
			<path style="fill:#181C21;" d="M116.504,114.265v-6.45h2.752c1.227,0,1.84,0.516,1.84,1.547c0,0.84-0.6,1.461-1.8,1.863
				l2.215,3.04h-1.101l-2.053-2.9v-0.546c1.233-0.195,1.85-0.669,1.85-1.42c0-0.596-0.343-0.894-1.028-0.894h-1.841v5.76H116.504z"
				/>
			<path style="fill:#181C21;" d="M126.607,107.814v0.677h-3.383v2.165h3.225v0.677h-3.225v2.255h3.451v0.677h-4.285v-6.45H126.607z
				"/>
			<path style="fill:#181C21;" d="M128.15,114.265h-0.866l2.737-6.45h0.926l2.751,6.45h-0.925l-0.834-2.03h-2.134l0.23-0.676h1.624
				l-1.204-2.923L128.15,114.265z"/>
			<path style="fill:#181C21;" d="M135.412,107.814v5.773h3.374v0.677h-4.208v-6.45H135.412z"/>
			<path style="fill:#181C21;" d="M146.251,107.814v0.677h-3.383v2.165h3.226v0.677h-3.226v2.255h3.45v0.677h-4.285v-6.45H146.251z"
				/>
			<path style="fill:#181C21;" d="M147.492,114.039v-0.767c0.676,0.241,1.406,0.36,2.191,0.36c1.109,0,1.664-0.406,1.664-1.217
				c0-0.692-0.408-1.038-1.227-1.038h-0.83c-1.35,0-2.025-0.587-2.025-1.759c0-1.232,0.865-1.85,2.594-1.85
				c0.752,0,1.451,0.09,2.098,0.271v0.767c-0.647-0.24-1.346-0.36-2.098-0.36c-1.172,0-1.759,0.391-1.759,1.173
				c0,0.691,0.397,1.037,1.191,1.037h0.83c1.374,0,2.062,0.586,2.062,1.76c0,1.262-0.833,1.894-2.499,1.894
				C148.898,114.31,148.168,114.22,147.492,114.039z"/>
			<path style="fill:#181C21;" d="M157.753,107.814v0.677h-2.03v5.773h-0.834v-5.773h-2.029v-0.677H157.753z"/>
			<path style="fill:#181C21;" d="M158.28,114.265h-0.866l2.738-6.45h0.924l2.752,6.45h-0.925l-0.835-2.03h-2.133l0.231-0.676h1.623
				l-1.204-2.923L158.28,114.265z"/>
			<path style="fill:#181C21;" d="M168.385,107.814v0.677h-2.03v5.773h-0.835v-5.773h-2.029v-0.677H168.385z"/>
			<path style="fill:#181C21;" d="M173.594,107.814v0.677h-3.383v2.165h3.225v0.677h-3.225v2.255h3.45v0.677h-4.285v-6.45H173.594z"
				/>
		</g>
		<g>
			<path style="fill:#181C21;" d="M113.756,117.063l0.49,0.958l0.498-0.958h0.418l-0.723,1.295v0.693h-0.384v-0.699l-0.72-1.289
				H113.756z"/>
			<path style="fill:#181C21;" d="M117.195,119.065c-0.141,0-0.268-0.028-0.384-0.085c-0.116-0.058-0.216-0.133-0.298-0.228
				c-0.084-0.095-0.147-0.202-0.192-0.323c-0.045-0.121-0.067-0.246-0.067-0.373c0-0.133,0.023-0.26,0.072-0.381
				c0.047-0.121,0.113-0.228,0.198-0.322c0.085-0.093,0.185-0.167,0.301-0.223c0.116-0.055,0.242-0.082,0.378-0.082
				c0.141,0,0.268,0.029,0.384,0.088c0.116,0.059,0.215,0.137,0.297,0.231c0.083,0.095,0.146,0.204,0.191,0.325
				c0.045,0.121,0.067,0.244,0.067,0.369c0,0.133-0.024,0.26-0.071,0.379c-0.048,0.121-0.113,0.228-0.197,0.32
				c-0.084,0.092-0.184,0.166-0.3,0.221C117.457,119.037,117.332,119.065,117.195,119.065z M116.644,118.057
				c0,0.086,0.013,0.17,0.038,0.25c0.025,0.08,0.061,0.15,0.109,0.213c0.047,0.061,0.105,0.111,0.174,0.148
				c0.07,0.037,0.148,0.056,0.236,0.056c0.089,0,0.168-0.019,0.236-0.058c0.068-0.038,0.125-0.089,0.172-0.152
				c0.047-0.063,0.082-0.135,0.106-0.215c0.024-0.079,0.036-0.16,0.036-0.242c0-0.086-0.013-0.168-0.039-0.249
				c-0.025-0.08-0.063-0.151-0.11-0.213c-0.048-0.062-0.105-0.11-0.174-0.147c-0.067-0.035-0.146-0.055-0.231-0.055
				c-0.089,0-0.168,0.02-0.236,0.059c-0.068,0.037-0.126,0.088-0.174,0.15c-0.047,0.063-0.083,0.134-0.107,0.213
				C116.655,117.895,116.644,117.975,116.644,118.057z"/>
			<path style="fill:#181C21;" d="M120.398,118.724c0.092,0,0.169-0.019,0.232-0.056c0.063-0.037,0.112-0.086,0.15-0.146
				c0.039-0.059,0.065-0.128,0.082-0.205c0.016-0.078,0.024-0.158,0.024-0.24v-1.014h0.383v1.014c0,0.137-0.016,0.265-0.049,0.385
				c-0.032,0.119-0.084,0.224-0.154,0.313c-0.069,0.09-0.16,0.161-0.27,0.213c-0.11,0.053-0.242,0.079-0.395,0.079
				c-0.159,0-0.294-0.028-0.405-0.083c-0.11-0.055-0.201-0.127-0.271-0.219c-0.068-0.09-0.119-0.195-0.149-0.314
				c-0.03-0.119-0.046-0.244-0.046-0.373v-1.014h0.387v1.014c0,0.084,0.008,0.165,0.023,0.242c0.016,0.078,0.043,0.146,0.081,0.207
				c0.038,0.059,0.089,0.107,0.149,0.144C120.234,118.705,120.31,118.724,120.398,118.724z"/>
			<path style="fill:#181C21;" d="M122.776,119.051v-1.988h0.88c0.092,0,0.176,0.02,0.254,0.058
				c0.076,0.038,0.144,0.089,0.199,0.151c0.057,0.063,0.1,0.133,0.132,0.213c0.032,0.079,0.048,0.159,0.048,0.239
				c0,0.129-0.032,0.246-0.097,0.352c-0.064,0.105-0.151,0.182-0.262,0.229l0.468,0.747h-0.438l-0.417-0.666h-0.381v0.666H122.776z
				 M123.163,118.046h0.484c0.036,0,0.069-0.009,0.1-0.025c0.03-0.017,0.058-0.04,0.079-0.068c0.023-0.028,0.041-0.063,0.054-0.103
				c0.013-0.039,0.02-0.081,0.02-0.126c0-0.046-0.007-0.089-0.022-0.129c-0.015-0.039-0.035-0.073-0.061-0.103
				c-0.024-0.028-0.054-0.051-0.086-0.066c-0.033-0.016-0.066-0.023-0.1-0.023h-0.468V118.046z"/>
			<path style="fill:#181C21;" d="M128.982,117.402h-0.633v1.648h-0.387v-1.648h-0.635v-0.34h1.654V117.402z"/>
			<path style="fill:#181C21;" d="M129.966,119.051l0.784-1.988h0.314l0.781,1.988h-0.409l-0.183-0.495h-0.697l-0.182,0.495H129.966
				z M130.907,117.48l-0.286,0.803h0.563L130.907,117.48z"/>
			<path style="fill:#181C21;" d="M134.512,118.827c-0.154,0.159-0.33,0.238-0.529,0.238c-0.127,0-0.247-0.028-0.359-0.084
				c-0.111-0.056-0.209-0.132-0.293-0.226c-0.082-0.094-0.148-0.203-0.195-0.326c-0.048-0.123-0.072-0.252-0.072-0.384
				c0-0.136,0.025-0.265,0.072-0.386c0.047-0.119,0.113-0.225,0.199-0.316c0.084-0.09,0.184-0.162,0.299-0.215
				c0.115-0.054,0.24-0.08,0.374-0.08c0.181,0,0.336,0.039,0.465,0.117c0.129,0.078,0.226,0.185,0.292,0.316l-0.289,0.213
				c-0.049-0.099-0.115-0.174-0.2-0.226c-0.085-0.053-0.179-0.078-0.281-0.078c-0.083,0-0.157,0.018-0.223,0.053
				c-0.066,0.035-0.123,0.084-0.169,0.146c-0.047,0.061-0.084,0.133-0.109,0.213c-0.027,0.08-0.039,0.164-0.039,0.254
				c0,0.094,0.014,0.182,0.041,0.262c0.028,0.082,0.067,0.152,0.117,0.212c0.051,0.06,0.11,0.106,0.179,0.142
				c0.067,0.035,0.143,0.052,0.226,0.052c0.183,0,0.348-0.091,0.496-0.271v-0.14h-0.401v-0.283h0.72v1.021h-0.318V118.827z"/>
			<path style="fill:#181C21;" d="M136.283,119.051v-1.988h0.387v1.65h1.014v0.338H136.283z"/>
			<path style="fill:#181C21;" d="M139.053,119.051v-1.985h0.387v1.985H139.053z"/>
			<path style="fill:#181C21;" d="M141.361,117.777v1.273h-0.387v-1.988h0.3l1.036,1.305v-1.302h0.387v1.985h-0.314L141.361,117.777
				z"/>
			<path style="fill:#181C21;" d="M145.612,118.713v0.338h-1.381v-1.988h1.356v0.34h-0.97v0.479h0.837v0.313h-0.837v0.519H145.612z"
				/>
			<path style="fill:#181C21;" d="M150.021,117.584c-0.013-0.014-0.036-0.031-0.071-0.053c-0.035-0.024-0.076-0.045-0.126-0.066
				c-0.05-0.021-0.103-0.039-0.161-0.055c-0.058-0.016-0.117-0.022-0.176-0.022c-0.107,0-0.187,0.02-0.238,0.059
				c-0.053,0.04-0.078,0.095-0.078,0.165c0,0.041,0.01,0.076,0.029,0.103c0.02,0.027,0.047,0.051,0.085,0.071
				c0.037,0.021,0.085,0.039,0.142,0.057c0.057,0.017,0.123,0.034,0.197,0.053c0.098,0.026,0.186,0.055,0.265,0.084
				s0.146,0.067,0.202,0.112c0.055,0.044,0.098,0.099,0.127,0.161s0.045,0.139,0.045,0.23c0,0.107-0.02,0.197-0.061,0.273
				c-0.04,0.076-0.094,0.137-0.16,0.184c-0.068,0.047-0.146,0.08-0.236,0.102c-0.09,0.021-0.183,0.033-0.279,0.033
				c-0.15,0-0.297-0.023-0.443-0.068c-0.145-0.045-0.275-0.107-0.392-0.189l0.171-0.334c0.017,0.018,0.047,0.039,0.091,0.066
				c0.044,0.027,0.096,0.054,0.155,0.081c0.061,0.026,0.127,0.05,0.199,0.068c0.072,0.018,0.147,0.028,0.225,0.028
				c0.213,0,0.318-0.068,0.318-0.205c0-0.045-0.012-0.082-0.036-0.111c-0.024-0.03-0.06-0.057-0.104-0.078
				c-0.045-0.023-0.099-0.043-0.163-0.063c-0.063-0.018-0.134-0.038-0.213-0.059c-0.095-0.025-0.178-0.055-0.247-0.086
				c-0.07-0.03-0.128-0.066-0.175-0.107c-0.047-0.041-0.082-0.09-0.105-0.146c-0.023-0.056-0.035-0.122-0.035-0.198
				c0-0.101,0.019-0.191,0.057-0.27c0.037-0.078,0.089-0.143,0.154-0.195c0.066-0.053,0.145-0.092,0.231-0.119
				c0.088-0.027,0.183-0.041,0.283-0.041c0.14,0,0.269,0.021,0.386,0.066c0.118,0.043,0.221,0.096,0.309,0.154L150.021,117.584z"/>
			<path style="fill:#181C21;" d="M151.676,119.051v-1.988h0.843c0.091,0,0.176,0.02,0.253,0.058
				c0.078,0.038,0.145,0.089,0.201,0.151c0.056,0.063,0.1,0.133,0.131,0.213c0.032,0.079,0.048,0.159,0.048,0.239
				c0,0.084-0.015,0.166-0.045,0.245c-0.03,0.08-0.071,0.15-0.126,0.211c-0.055,0.063-0.119,0.111-0.195,0.148
				c-0.077,0.038-0.161,0.057-0.252,0.057h-0.471v0.666H151.676z M152.063,118.046h0.447c0.071,0,0.131-0.028,0.178-0.087
				c0.048-0.058,0.072-0.137,0.072-0.235c0-0.05-0.008-0.096-0.023-0.136c-0.014-0.04-0.034-0.074-0.059-0.102
				c-0.023-0.029-0.053-0.05-0.085-0.063c-0.032-0.015-0.065-0.021-0.1-0.021h-0.431V118.046z"/>
			<path style="fill:#181C21;" d="M154.191,119.051l0.784-1.988h0.314l0.781,1.988h-0.409l-0.183-0.495h-0.697l-0.182,0.495H154.191
				z M155.132,117.48l-0.286,0.803h0.563L155.132,117.48z"/>
			<path style="fill:#181C21;" d="M157.285,118.043c0-0.121,0.021-0.241,0.064-0.359c0.043-0.119,0.105-0.225,0.186-0.318
				c0.082-0.094,0.182-0.169,0.299-0.226c0.117-0.059,0.252-0.087,0.403-0.087c0.177,0,0.331,0.04,0.46,0.12
				c0.131,0.08,0.227,0.186,0.287,0.314l-0.297,0.203c-0.021-0.055-0.051-0.103-0.086-0.141c-0.035-0.039-0.074-0.068-0.117-0.092
				c-0.041-0.021-0.085-0.038-0.129-0.049c-0.045-0.01-0.088-0.016-0.129-0.016c-0.092,0-0.172,0.021-0.242,0.06
				c-0.068,0.039-0.126,0.09-0.172,0.153c-0.045,0.063-0.08,0.133-0.104,0.212c-0.023,0.079-0.035,0.159-0.035,0.237
				c0,0.088,0.014,0.172,0.041,0.253c0.027,0.081,0.065,0.153,0.115,0.214c0.049,0.063,0.108,0.111,0.178,0.148
				c0.068,0.037,0.145,0.057,0.227,0.057c0.043,0,0.087-0.006,0.132-0.018c0.044-0.011,0.088-0.028,0.13-0.053
				c0.042-0.024,0.081-0.055,0.116-0.094c0.036-0.038,0.064-0.084,0.087-0.139l0.316,0.182c-0.029,0.075-0.073,0.141-0.131,0.197
				c-0.057,0.058-0.121,0.106-0.193,0.145c-0.073,0.039-0.15,0.069-0.23,0.09c-0.08,0.021-0.159,0.031-0.238,0.031
				c-0.138,0-0.264-0.03-0.379-0.09c-0.115-0.06-0.214-0.138-0.297-0.234c-0.083-0.096-0.147-0.205-0.193-0.327
				C157.308,118.295,157.285,118.17,157.285,118.043z"/>
			<path style="fill:#181C21;" d="M161.78,118.713v0.338H160.4v-1.988h1.356v0.34h-0.97v0.479h0.837v0.313h-0.837v0.519H161.78z"/>
			<path style="fill:#181C21;" d="M166.673,117.063v1.988h-0.384v-0.848h-0.902v0.848H165v-1.988h0.387v0.805h0.902v-0.805H166.673z
				"/>
			<path style="fill:#181C21;" d="M169.588,118.713v0.338h-1.381v-1.988h1.355v0.34h-0.969v0.479h0.838v0.313h-0.838v0.519H169.588z
				"/>
			<path style="fill:#181C21;" d="M171.02,119.051v-1.988h0.879c0.092,0,0.176,0.02,0.254,0.058c0.077,0.038,0.145,0.089,0.2,0.151
				c0.056,0.063,0.1,0.133,0.132,0.213c0.031,0.079,0.047,0.159,0.047,0.239c0,0.129-0.031,0.246-0.096,0.352
				c-0.064,0.105-0.152,0.182-0.262,0.229l0.467,0.747h-0.437l-0.417-0.666h-0.381v0.666H171.02z M171.406,118.046h0.484
				c0.035,0,0.068-0.009,0.1-0.025c0.03-0.017,0.057-0.04,0.079-0.068c0.022-0.028,0.04-0.063,0.054-0.103
				c0.013-0.039,0.02-0.081,0.02-0.126c0-0.046-0.008-0.089-0.022-0.129c-0.015-0.039-0.035-0.073-0.061-0.103
				c-0.024-0.028-0.054-0.051-0.087-0.066c-0.033-0.016-0.065-0.023-0.1-0.023h-0.467V118.046z"/>
			<path style="fill:#181C21;" d="M175.408,118.713v0.338h-1.381v-1.988h1.355v0.34h-0.969v0.479h0.837v0.313h-0.837v0.519H175.408z
				"/>
		</g>
		<g>
			<path style="fill:#181C21;" d="M151.042,75.014v25.357c0.865,0.127,1.719,0.325,2.558,0.574V78.604l1,0.685v21.988
				c0.267,0.096,0.536,0.185,0.798,0.292c0.159,0.037,0.314,0.088,0.473,0.13c0.131-0.012,0.266-0.032,0.396-0.042V80.428l1,0.685
				v20.488c0.563-0.021,1.118-0.021,1.667-0.003V82.253l1,0.685v18.717c0.56,0.043,1.116,0.102,1.667,0.184V84.077l1,0.685v17.242
				c0.558,0.105,1.112,0.235,1.666,0.378v-16.48l1,0.685v16.072c0.555,0.164,1.109,0.342,1.666,0.539V87.727l1,0.684v15.161
				c0.553,0.214,1.107,0.446,1.667,0.69V88.074L151.042,75.014z"/>
			<polygon style="fill:#181C21;" points="129.743,35.706 129.743,54.408 130.578,54.408 130.578,37.768 131.578,37.258 
				131.578,54.408 133.245,54.408 133.245,36.406 134.245,35.896 134.245,54.408 135.912,54.408 135.912,35.046 136.912,34.535 
				136.912,54.408 138.578,54.408 138.578,33.686 139.578,33.175 139.578,54.408 141.244,54.408 141.244,32.324 142.244,31.815 
				142.244,54.408 143.911,54.408 143.911,30.964 144.911,30.453 144.911,54.408 145.703,54.408 145.703,27.824 			"/>
			<path style="fill:#181C21;" d="M130.578,101.324V56.322l1-0.563v45.345c0.555-0.121,1.111-0.236,1.667-0.346V54.82l1-0.563
				v46.305c0.556-0.102,1.11-0.194,1.667-0.279V53.319l1-0.563v47.391c0.555-0.073,1.11-0.137,1.666-0.189V51.818l1-0.563v48.608
				c0.556-0.04,1.111-0.066,1.666-0.079V50.317l1-0.564v50.03c0.557,0.002,1.112,0.02,1.667,0.052v-51.02l1-0.563v51.646
				c0.557,0.053,1.112,0.125,1.667,0.211V47.314l1-0.563v53.457c0.555-0.024,1.111-0.027,1.666-0.001V45.814l1-0.563v55.035
				c0.616,0.063,1.229,0.155,1.835,0.279V40.152l-28.752,17.547v45.439c0.082-0.023,0.158-0.055,0.241-0.075
				c0.557-0.141,1.116-0.283,1.678-0.426V59.324l1-0.563v43.621c0.554-0.141,1.109-0.279,1.666-0.418V57.822l1-0.563v44.458
				C129.467,101.583,130.021,101.451,130.578,101.324z"/>
		</g>
	</g>
</g>
</svg>
